<svg height="24" viewBox="0 0 24 24" width="24" xmlns="http://www.w3.org/2000/svg"><path d="m11.5 20.5c-4.971 0-9-4.029-9-9s4.029-9 9-9 9 4.029 9 9-4.029 9-9 9zm5-8c0 2-2 4.5-5 4.5s-5-2.5-5-4.5c1.66666667.3333333 3.33333333.5 5 .5 1.6666667 0 3.3333333-.1666667 5-.5zm-6-3c-.3333333-1.33333333-.83333333-2-1.5-2s-1.16666667.66666667-1.5 2m8 0c-.3333333-1.33333333-.8333333-2-1.5-2s-1.1666667.66666667-1.5 2m3.3909466 5.021576-.4403293.0833623c-1.4485597.2633745-2.7654321.3950617-3.9506173.3950617s-2.50205761-.1316872-3.95061728-.3950617l-.4403293-.0833623" fill="none" stroke="#000" stroke-linecap="round" stroke-linejoin="round"/></svg>