<svg width="24" height="24" viewBox="0 0 24 24" fill="none" xmlns="http://www.w3.org/2000/svg">
<path fill-rule="evenodd" clip-rule="evenodd" d="M6 6C6.55229 6 7 6.44772 7 7V15.2C7 16.0566 7.00078 16.6389 7.03755 17.089C7.07337 17.5274 7.1383 17.7516 7.21799 17.908C7.40973 18.2843 7.7157 18.5903 8.09202 18.782C8.24842 18.8617 8.47262 18.9266 8.91104 18.9624C9.36113 18.9992 9.94342 19 10.8 19H13.2C14.0566 19 14.6389 18.9992 15.089 18.9624C15.5274 18.9266 15.7516 18.8617 15.908 18.782C16.2843 18.5903 16.5903 18.2843 16.782 17.908C16.8617 17.7516 16.9266 17.5274 16.9624 17.089C16.9992 16.6389 17 16.0566 17 15.2V7C17 6.44772 17.4477 6 18 6C18.5523 6 19 6.44772 19 7V15.2413C19 16.0463 19 16.7106 18.9558 17.2518C18.9099 17.8139 18.8113 18.3306 18.564 18.816C18.1805 19.5686 17.5686 20.1805 16.816 20.564C16.3306 20.8113 15.8139 20.9099 15.2518 20.9558C14.7106 21 14.0463 21 13.2413 21H10.7587C9.95374 21 9.28938 21 8.74817 20.9558C8.18608 20.9099 7.66937 20.8113 7.18404 20.564C6.43139 20.1805 5.81947 19.5686 5.43597 18.816C5.18868 18.3306 5.09012 17.8139 5.04419 17.2518C4.99998 16.7106 4.99999 16.0463 5 15.2413L5 7C5 6.44772 5.44772 6 6 6Z" fill="#12131A"/>
<path fill-rule="evenodd" clip-rule="evenodd" d="M12 15C11.4477 15 11 15.4477 11 16V19H9V16C9 14.3431 10.3431 13 12 13C13.6569 13 15 14.3431 15 16V19H13V16C13 15.4477 12.5523 15 12 15Z" fill="#12131A"/>
<path fill-rule="evenodd" clip-rule="evenodd" d="M3.10557 8.44699C3.35256 8.94097 3.95323 9.1412 4.44721 8.89421L12 5.11782L19.5528 8.89421C20.0468 9.1412 20.6474 8.94097 20.8944 8.44699C21.1414 7.95302 20.9412 7.35234 20.4472 7.10535L12.4472 3.10535C12.1657 2.96459 11.8343 2.96459 11.5528 3.10535L3.55278 7.10535C3.05881 7.35234 2.85858 7.95302 3.10557 8.44699Z" fill="#12131A"/>
</svg>
