<svg height="24" viewBox="0 0 24 24" width="24" xmlns="http://www.w3.org/2000/svg"><path d="m8.5 9.5v2m6-2v2m-4.5-5.5c-.66666667 1-1.66666667 1.5-3 1.5m6-1.5c.6666667 1 1.6666667 1.5 3 1.5m-11.5 10c1 0 2-.5 2-2 0-1-.66666667-2.3333333-2-4-1.33333333 1.6666667-2 3-2 4 0 1.5 1 2 2 2zm10.5355339-1.4644661c-1.9527932-1.9527932-5.11827458-1.9527932-7.07106781 0m-5.10252849-1.9927155c-.23482163-.8066019-.3619376-1.65985-.3619376-2.5428184 0-4.971 4.029-9 9-9s9 4.029 9 9-4.029 9-9 9c-2.6721034 0-5.07201822-1.1641696-6.7202704-3.0130348" fill="none" stroke="#000" stroke-linecap="round" stroke-linejoin="round"/></svg>